<?xml version="1.0" encoding="utf-8"?>
<!-- Generator: Adobe Illustrator 24.2.0, SVG Export Plug-In . SVG Version: 6.00 Build 0)  -->
<svg version="1.1" xmlns="http://www.w3.org/2000/svg" xmlns:xlink="http://www.w3.org/1999/xlink" x="0px" y="0px"
	 viewBox="0 0 45 45" style="enable-background:new 0 0 45 45;" xml:space="preserve">
<style type="text/css">
	.st0{stroke:#000000;stroke-width:2;stroke-miterlimit:10;}
	.st1{stroke:#FFFFFF;stroke-width:1.6;stroke-miterlimit:10;}
	.st2{fill:#FFFFFF;stroke:#FFFFFF;stroke-width:0.75;stroke-miterlimit:10;}
</style>
<g id="svg4393" inkscape:version="0.92.1 r15371" sodipodi:docname="CommonerB_Transparent.svg" xmlns:cc="http://creativecommons.org/ns#" xmlns:dc="http://purl.org/dc/elements/1.1/" xmlns:inkscape="http://www.inkscape.org/namespaces/inkscape" xmlns:rdf="http://www.w3.org/1999/02/22-rdf-syntax-ns#" xmlns:sodipodi="http://sodipodi.sourceforge.net/DTD/sodipodi-0.dtd" xmlns:svg="http://www.w3.org/2000/svg">
</g>
<g id="Layer_2">
	<path class="st0" d="M22.7,3.3L22.7,3.3c-0.1,0-0.2,0-0.2,0c-0.1,0-0.2,0-0.2,0v0C16.4,3.4,6.6,5.5,6.6,21.6c0,16.6,0,17.4,0,17.4
		l4.6-3.1l6.1,3.7l5.2-3.8l5.2,3.8l6.1-3.7l4.6,3.1c0,0,0-0.9,0-17.4C38.4,5.5,28.6,3.4,22.7,3.3z"/>
	<path class="st1" d="M22.7,4.2L22.7,4.2c-0.1,0-0.1,0-0.2,0c-0.1,0-0.1,0-0.2,0v0c-5.7,0.1-15,2.1-15,17.2c0,15.6,0,16.4,0,16.4
		l4.4-2.9l5.9,3.5l4.9-3.6l4.9,3.6l5.9-3.5l4.4,2.9c0,0,0-0.8,0-16.4C37.7,6.2,28.4,4.3,22.7,4.2z"/>
	<g>
		<ellipse class="st2" cx="17.3" cy="15" rx="1.5" ry="2.9"/>
		<ellipse class="st2" cx="27.7" cy="15" rx="1.5" ry="2.9"/>
	</g>
</g>
</svg>
