<?xml version="1.0" encoding="utf-8"?>
<!-- Generator: Adobe Illustrator 24.2.0, SVG Export Plug-In . SVG Version: 6.00 Build 0)  -->
<svg version="1.1"
	 id="svg4393" inkscape:version="0.92.1 r15371" sodipodi:docname="Commoner_Transparent.svg" xmlns:cc="http://creativecommons.org/ns#" xmlns:dc="http://purl.org/dc/elements/1.1/" xmlns:inkscape="http://www.inkscape.org/namespaces/inkscape" xmlns:rdf="http://www.w3.org/1999/02/22-rdf-syntax-ns#" xmlns:sodipodi="http://sodipodi.sourceforge.net/DTD/sodipodi-0.dtd" xmlns:svg="http://www.w3.org/2000/svg"
	 xmlns="http://www.w3.org/2000/svg" xmlns:xlink="http://www.w3.org/1999/xlink" x="0px" y="0px" viewBox="0 0 45 45"
	 style="enable-background:new 0 0 45 45;" xml:space="preserve">
<style type="text/css">
	.st0{fill:#FFFFFF;stroke:#000000;stroke-width:2;stroke-miterlimit:10;}
	.st1{stroke:#000000;stroke-width:0.75;stroke-miterlimit:10;}
</style>
<sodipodi:namedview  bordercolor="#666666" borderopacity="1.0" id="base" inkscape:current-layer="layer1" inkscape:cx="5.1998528" inkscape:cy="24.301903" inkscape:document-units="mm" inkscape:pageopacity="0.0" inkscape:pageshadow="2" inkscape:window-height="837" inkscape:window-maximized="1" inkscape:window-width="1600" inkscape:window-x="-8" inkscape:window-y="-8" inkscape:zoom="1" pagecolor="#ffffff" showgrid="false" units="px">
	</sodipodi:namedview>
<path class="st0" d="M22.7,4.3L22.7,4.3c-0.1,0-0.2,0-0.2,0c-0.1,0-0.2,0-0.2,0v0C16.4,4.4,6.6,6.5,6.6,22.6c0,16.6,0,17.4,0,17.4
	l4.6-3.1l6.1,3.7l5.2-3.8l5.2,3.8l6.1-3.7l4.6,3.1c0,0,0-0.9,0-17.4C38.4,6.5,28.6,4.4,22.7,4.3z"/>
<g>
	<ellipse class="st1" cx="17.3" cy="16" rx="1.5" ry="2.9"/>
	<ellipse class="st1" cx="27.7" cy="16" rx="1.5" ry="2.9"/>
</g>
</svg>
